<svg width="171" height="29" viewBox="0 0 171 29" fill="none" xmlns="http://www.w3.org/2000/svg">
<g clip-path="url(#clip0_37_893)">
<rect width="171" height="29" fill="white"/>
<path d="M13.3902 22.28V16.07C13.3902 13.25 13.3202 10.93 13.1802 9.11C13.5202 9.05 13.9302 9.02 14.4102 9.02C15.3902 9.02 15.8802 9.4 15.8802 10.16C15.8802 10.28 15.8602 10.69 15.8202 11.39C15.7802 12.07 15.7402 12.93 15.7002 13.97C15.6602 14.99 15.6402 15.96 15.6402 16.88V19.58C15.6402 23.74 15.7102 26.26 15.8502 27.14C16.6902 27.18 17.3502 27.2 17.8302 27.2C20.9502 27.2 22.9602 26.97 23.8602 26.51C24.0002 26.93 24.0702 27.37 24.0702 27.83C24.0702 28.19 23.9802 28.45 23.8002 28.61C23.4602 28.91 21.9302 29.06 19.2102 29.06C16.8102 29.06 15.3102 29.04 14.7102 29C14.1702 28.98 13.8002 28.84 13.6002 28.58C13.4202 28.32 13.3302 27.89 13.3302 27.29C13.3302 26.97 13.3402 26.23 13.3602 25.07C13.3802 23.91 13.3902 22.98 13.3902 22.28ZM27.0015 23.6V18.92C27.0015 16.84 26.9415 15.04 26.8215 13.52C27.1815 13.46 27.5615 13.43 27.9615 13.43C28.9015 13.43 29.3715 13.73 29.3715 14.33C29.3715 14.41 29.3515 14.72 29.3115 15.26C29.2915 15.8 29.2615 16.47 29.2215 17.27C29.1815 18.07 29.1615 18.83 29.1615 19.55V24.26C29.1615 26.36 29.3215 27.9 29.6415 28.88C29.3415 29 28.9015 29.06 28.3215 29.06C27.7815 29.06 27.4115 28.96 27.2115 28.76C27.0315 28.56 26.9415 28.22 26.9415 27.74C26.9415 27.5 26.9515 26.89 26.9715 25.91C26.9915 24.93 27.0015 24.16 27.0015 23.6ZM37.0689 21.77V24.32C37.0689 26.42 37.2289 27.96 37.5489 28.94C37.1489 29.06 36.7089 29.12 36.2289 29.12C35.6889 29.12 35.3189 29.02 35.1189 28.82C34.9389 28.62 34.8489 28.29 34.8489 27.83C34.8489 27.57 34.8589 26.95 34.8789 25.97C34.8989 24.99 34.9089 24.23 34.9089 23.69V18.98C34.9089 16.72 34.7889 14.94 34.5489 13.64C36.5089 13.5 38.3389 13.43 40.0389 13.43C42.4589 13.43 43.8189 13.55 44.1189 13.79C44.2789 13.93 44.3589 14.16 44.3589 14.48C44.3589 14.88 44.2889 15.26 44.1489 15.62C43.1889 15.3 41.6889 15.14 39.6489 15.14C38.9889 15.14 38.0989 15.16 36.9789 15.2C37.0389 15.74 37.0689 16.74 37.0689 18.2V20.09H38.9889C40.3289 20.09 41.2889 20.06 41.8689 20C41.9289 20.16 41.9589 20.39 41.9589 20.69C41.9589 21.19 41.8289 21.5 41.5689 21.62C41.3089 21.72 40.7189 21.77 39.7989 21.77H37.0689ZM49.2543 15.2C49.3143 15.68 49.3443 17.23 49.3443 19.85H51.2643C52.6043 19.85 53.5643 19.82 54.1443 19.76C54.2043 19.92 54.2343 20.14 54.2343 20.42C54.2343 20.82 54.1443 21.1 53.9643 21.26C53.8043 21.4 53.5443 21.48 53.1843 21.5C52.7643 21.52 52.1943 21.53 51.4743 21.53H49.3443C49.3443 24.75 49.4043 26.69 49.5243 27.35C50.2443 27.39 50.8243 27.41 51.2643 27.41C53.9043 27.41 55.6343 27.23 56.4543 26.87C56.5943 27.23 56.6643 27.61 56.6643 28.01C56.6643 28.33 56.5843 28.56 56.4243 28.7C56.1243 28.92 54.7643 29.03 52.3443 29.03C51.8643 29.03 51.0943 29.02 50.0343 29C48.9743 29 48.4243 29 48.3843 29C47.8843 28.98 47.5443 28.87 47.3643 28.67C47.2043 28.47 47.1243 28.14 47.1243 27.68C47.1243 27.4 47.1343 26.79 47.1543 25.85C47.1743 24.89 47.1843 24.14 47.1843 23.6V19.01C47.1843 16.73 47.0643 14.94 46.8243 13.64C48.7843 13.5 50.6143 13.43 52.3143 13.43C54.7343 13.43 56.0943 13.55 56.3943 13.79C56.5543 13.93 56.6343 14.16 56.6343 14.48C56.6343 14.88 56.5643 15.26 56.4243 15.62C55.4643 15.3 53.9643 15.14 51.9243 15.14C51.1443 15.14 50.2543 15.16 49.2543 15.2ZM76.2004 16.76C76.2004 17.34 76.6204 18.35 77.4604 19.79C78.2004 19.23 78.7304 18.72 79.0504 18.26C79.3904 17.78 79.5604 17.21 79.5604 16.55C79.5604 16.07 79.4304 15.67 79.1704 15.35C78.9104 15.01 78.5104 14.84 77.9704 14.84C76.7904 14.84 76.2004 15.48 76.2004 16.76ZM78.5704 27.47C79.2704 27.47 79.9204 27.31 80.5204 26.99C79.0604 25.59 77.7304 24.06 76.5304 22.4C75.8504 23.02 75.5104 23.75 75.5104 24.59C75.5104 25.47 75.7904 26.17 76.3504 26.69C76.9304 27.21 77.6704 27.47 78.5704 27.47ZM82.9504 21.74C83.7904 21.74 84.2104 22.26 84.2104 23.3C84.2104 24.5 83.9504 25.54 83.4304 26.42C84.2704 26.96 85.0704 27.24 85.8304 27.26C85.8704 27.46 85.8904 27.69 85.8904 27.95C85.8904 28.31 85.7704 28.61 85.5304 28.85C85.3104 29.09 84.9604 29.21 84.4804 29.21C83.6604 29.21 82.7904 28.86 81.8704 28.16C80.8504 28.86 79.6704 29.21 78.3304 29.21C76.9504 29.21 75.7404 28.83 74.7004 28.07C73.6604 27.29 73.1404 26.2 73.1404 24.8C73.1404 23.94 73.3404 23.24 73.7404 22.7C74.1604 22.14 74.7804 21.58 75.6004 21.02C75.1404 20.22 74.8104 19.63 74.6104 19.25C74.1704 18.31 73.9504 17.54 73.9504 16.94C73.9504 15.8 74.3504 14.89 75.1504 14.21C75.9504 13.53 76.9604 13.19 78.1804 13.19C79.3204 13.19 80.2104 13.5 80.8504 14.12C81.4904 14.74 81.8104 15.47 81.8104 16.31C81.8104 16.93 81.7204 17.49 81.5404 17.99C81.3604 18.49 81.0704 18.94 80.6704 19.34C80.2704 19.74 79.9104 20.06 79.5904 20.3C79.2904 20.52 78.8604 20.81 78.3004 21.17C79.4804 22.81 80.6704 24.18 81.8704 25.28C81.9904 24.94 82.0504 24.54 82.0504 24.08C82.0504 23.4 81.9304 22.75 81.6904 22.13C82.2504 21.87 82.6704 21.74 82.9504 21.74ZM102.804 22.28V16.07C102.804 13.25 102.734 10.93 102.594 9.11C102.934 9.05 103.344 9.02 103.824 9.02C104.804 9.02 105.294 9.4 105.294 10.16C105.294 10.28 105.274 10.69 105.234 11.39C105.194 12.07 105.154 12.93 105.114 13.97C105.074 14.99 105.054 15.96 105.054 16.88V19.58C105.054 23.74 105.124 26.26 105.264 27.14C106.104 27.18 106.764 27.2 107.244 27.2C110.364 27.2 112.374 26.97 113.274 26.51C113.414 26.93 113.484 27.37 113.484 27.83C113.484 28.19 113.394 28.45 113.214 28.61C112.874 28.91 111.344 29.06 108.624 29.06C106.224 29.06 104.724 29.04 104.124 29C103.584 28.98 103.214 28.84 103.014 28.58C102.834 28.32 102.744 27.89 102.744 27.29C102.744 26.97 102.754 26.23 102.774 25.07C102.794 23.91 102.804 22.98 102.804 22.28ZM122.536 29.21C120.216 29.21 118.366 28.49 116.986 27.05C115.606 25.61 114.916 23.68 114.916 21.26C114.916 18.82 115.606 16.88 116.986 15.44C118.366 14 120.216 13.28 122.536 13.28C124.876 13.28 126.736 14 128.116 15.44C129.516 16.88 130.216 18.82 130.216 21.26C130.216 23.68 129.516 25.61 128.116 27.05C126.736 28.49 124.876 29.21 122.536 29.21ZM127.816 21.68C127.816 20.54 127.656 19.48 127.336 18.5C127.016 17.52 126.436 16.68 125.596 15.98C124.776 15.28 123.766 14.93 122.566 14.93C120.946 14.93 119.656 15.46 118.696 16.52C117.756 17.58 117.286 18.93 117.286 20.57C117.286 21.77 117.446 22.88 117.766 23.9C118.086 24.92 118.656 25.79 119.476 26.51C120.296 27.23 121.316 27.59 122.536 27.59C124.216 27.59 125.516 27.05 126.436 25.97C127.356 24.87 127.816 23.44 127.816 21.68ZM140.729 29.21C138.409 29.21 136.559 28.49 135.179 27.05C133.799 25.61 133.109 23.68 133.109 21.26C133.109 18.82 133.799 16.88 135.179 15.44C136.559 14 138.409 13.28 140.729 13.28C143.069 13.28 144.929 14 146.309 15.44C147.709 16.88 148.409 18.82 148.409 21.26C148.409 23.68 147.709 25.61 146.309 27.05C144.929 28.49 143.069 29.21 140.729 29.21ZM146.009 21.68C146.009 20.54 145.849 19.48 145.529 18.5C145.209 17.52 144.629 16.68 143.789 15.98C142.969 15.28 141.959 14.93 140.759 14.93C139.139 14.93 137.849 15.46 136.889 16.52C135.949 17.58 135.479 18.93 135.479 20.57C135.479 21.77 135.639 22.88 135.959 23.9C136.279 24.92 136.849 25.79 137.669 26.51C138.489 27.23 139.509 27.59 140.729 27.59C142.409 27.59 143.709 27.05 144.629 25.97C145.549 24.87 146.009 23.44 146.009 21.68ZM168.372 18.8V24.26C168.372 26.36 168.522 27.91 168.822 28.91C168.562 29.01 168.152 29.06 167.592 29.06C167.032 29.06 166.652 28.96 166.452 28.76C166.272 28.56 166.182 28.22 166.182 27.74C166.182 27.2 166.182 25.7 166.182 23.24C166.202 20.76 166.212 18.55 166.212 16.61C164.892 19.35 163.362 23.47 161.622 28.97C161.382 29.03 161.062 29.06 160.662 29.06C160.042 29.02 159.642 28.82 159.462 28.46C159.022 27.56 158.292 25.73 157.272 22.97C156.252 20.21 155.382 18.09 154.662 16.61V24.26C154.662 26.36 154.822 27.91 155.142 28.91C154.742 29.01 154.382 29.06 154.062 29.06C153.542 29.06 153.192 28.96 153.012 28.76C152.832 28.56 152.742 28.22 152.742 27.74C152.742 27.5 152.742 26.89 152.742 25.91C152.762 24.93 152.772 24.16 152.772 23.6V17.72C152.772 15.96 152.622 14.58 152.322 13.58C152.922 13.46 153.442 13.4 153.882 13.4C154.702 13.4 155.342 13.78 155.802 14.54C156.442 15.54 157.072 16.79 157.692 18.29C158.332 19.77 158.832 21.04 159.192 22.1C159.552 23.14 160.032 24.6 160.632 26.48C161.852 21.62 163.442 17.63 165.402 14.51C165.842 13.77 166.482 13.4 167.322 13.4C167.802 13.4 168.302 13.46 168.822 13.58C168.522 14.52 168.372 16.26 168.372 18.8Z" fill="black"/>
</g>
<defs>
<clipPath id="clip0_37_893">
<rect width="171" height="29" fill="white"/>
</clipPath>
</defs>
</svg>
