<svg width="192" height="27" viewBox="0 0 192 27" fill="none" xmlns="http://www.w3.org/2000/svg">
<path d="M0.337141 17.488V9.622C0.337141 6.05 0.248474 3.11133 0.0711409 0.805998C0.501808 0.729999 1.02114 0.692 1.62914 0.692C2.87047 0.692 3.49114 1.17333 3.49114 2.136C3.49114 2.288 3.46581 2.80733 3.41514 3.694C3.36447 4.55533 3.31381 5.64467 3.26314 6.962C3.21247 8.254 3.18714 9.48267 3.18714 10.648V14.068C3.18714 19.3373 3.27581 22.5293 3.45314 23.644C4.51714 23.6947 5.35314 23.72 5.96114 23.72C9.91314 23.72 12.4591 23.4287 13.5991 22.846C13.7765 23.378 13.8651 23.9353 13.8651 24.518C13.8651 24.974 13.7511 25.3033 13.5231 25.506C13.0925 25.886 11.1545 26.076 7.70914 26.076C4.66914 26.076 2.76914 26.0507 2.00914 26C1.32514 25.9747 0.856474 25.7973 0.603141 25.468C0.375141 25.1387 0.261141 24.594 0.261141 23.834C0.261141 23.4287 0.273808 22.4913 0.299141 21.022C0.324474 19.5527 0.337141 18.3747 0.337141 17.488ZM16.6282 17.222V9.622C16.6282 6.05 16.5395 3.11133 16.3622 0.805998C16.7928 0.729999 17.3122 0.692 17.9202 0.692C19.1615 0.692 19.7822 1.17333 19.7822 2.136C19.7822 2.288 19.7568 2.80733 19.7062 3.694C19.6555 4.55533 19.6048 5.64467 19.5542 6.962C19.5035 8.254 19.4782 9.48267 19.4782 10.648V18.286C19.4782 21.706 19.7188 24.214 20.2002 25.81C19.7442 26.0127 19.1488 26.114 18.4142 26.114C17.6795 26.114 17.1855 25.9493 16.9322 25.62C16.6788 25.2907 16.5522 24.7333 16.5522 23.948C16.5522 23.5427 16.5648 22.542 16.5902 20.946C16.6155 19.35 16.6282 18.1087 16.6282 17.222ZM28.1309 14.068V18.286C28.1309 21.706 28.3715 24.214 28.8529 25.81C28.3969 26.0127 27.8015 26.114 27.0669 26.114C26.3322 26.114 25.8382 25.9493 25.5849 25.62C25.3315 25.2907 25.2049 24.7333 25.2049 23.948C25.2049 23.5427 25.2175 22.542 25.2429 20.946C25.2682 19.35 25.2809 18.1087 25.2809 17.222V9.888C25.2809 6.26533 25.1035 3.314 24.7489 1.034C27.4595 0.806 30.2209 0.692 33.0329 0.692C36.6809 0.692 38.7329 0.881999 39.1889 1.262C39.4169 1.46467 39.5309 1.794 39.5309 2.25C39.5309 2.858 39.4295 3.41533 39.2269 3.922C37.7829 3.39 35.4269 3.124 32.1589 3.124C30.8162 3.124 29.4229 3.162 27.9789 3.238C28.0802 4.35267 28.1309 5.86 28.1309 7.76V11.674H31.1329C33.2355 11.674 34.7555 11.6233 35.6929 11.522C35.7942 11.7247 35.8449 12.054 35.8449 12.51C35.8449 13.2447 35.6422 13.688 35.2369 13.84C34.8315 13.992 33.8942 14.068 32.4249 14.068H28.1309ZM45.2718 3.238C45.3732 4.35267 45.4238 7.038 45.4238 11.294H48.4258C50.5538 11.294 52.0738 11.2433 52.9858 11.142C53.0872 11.3447 53.1378 11.674 53.1378 12.13C53.1378 12.7127 52.9985 13.1053 52.7198 13.308C52.4665 13.5107 52.0485 13.6247 51.4658 13.65C50.8072 13.6753 49.9078 13.688 48.7678 13.688H45.4238C45.4238 19.2107 45.5125 22.5293 45.6898 23.644C46.8045 23.6947 47.7038 23.72 48.3878 23.72C52.6438 23.72 55.3672 23.4287 56.5578 22.846C56.7605 23.3527 56.8618 23.91 56.8618 24.518C56.8618 24.974 56.7478 25.3033 56.5198 25.506C56.0638 25.886 54.0118 26.076 50.3638 26.076C47.1212 26.076 45.1198 26.0507 44.3598 26C43.6252 25.9747 43.1312 25.7973 42.8778 25.468C42.6245 25.1387 42.4978 24.594 42.4978 23.834C42.4978 23.4287 42.5105 22.4913 42.5358 21.022C42.5612 19.5527 42.5738 18.3747 42.5738 17.488V9.888C42.5738 6.26533 42.3965 3.314 42.0418 1.034C44.7525 0.806 47.5138 0.692 50.3258 0.692C53.9738 0.692 56.0258 0.881999 56.4818 1.262C56.7098 1.46467 56.8238 1.794 56.8238 2.25C56.8238 2.858 56.7225 3.41533 56.5198 3.922C55.0758 3.39 52.7198 3.124 49.4518 3.124C48.1092 3.124 46.7158 3.162 45.2718 3.238ZM72.5861 10.496C72.5861 11.2307 73.1181 12.51 74.1821 14.334C75.1195 13.6247 75.7908 12.9787 76.1961 12.396C76.6268 11.788 76.8421 11.066 76.8421 10.23C76.8421 9.622 76.6775 9.11533 76.3481 8.71C76.0188 8.27933 75.5121 8.064 74.8281 8.064C73.3335 8.064 72.5861 8.87467 72.5861 10.496ZM75.5881 24.062C76.4748 24.062 77.2981 23.8593 78.0581 23.454C76.2088 21.6807 74.5241 19.7427 73.0041 17.64C72.1428 18.4253 71.7121 19.35 71.7121 20.414C71.7121 21.5287 72.0668 22.4153 72.7761 23.074C73.5108 23.7327 74.4481 24.062 75.5881 24.062ZM81.1361 16.804C82.2001 16.804 82.7321 17.4627 82.7321 18.78C82.7321 20.3 82.4028 21.6173 81.7441 22.732C82.8081 23.416 83.8215 23.7707 84.7841 23.796C84.8348 24.0493 84.8601 24.3407 84.8601 24.67C84.8601 25.126 84.7081 25.506 84.4041 25.81C84.1255 26.114 83.6821 26.266 83.0741 26.266C82.0355 26.266 80.9335 25.8227 79.7681 24.936C78.4761 25.8227 76.9815 26.266 75.2841 26.266C73.5361 26.266 72.0035 25.7847 70.6861 24.822C69.3688 23.834 68.7101 22.4533 68.7101 20.68C68.7101 19.5907 68.9635 18.704 69.4701 18.02C70.0021 17.3107 70.7875 16.6013 71.8261 15.892C71.2435 14.8787 70.8255 14.1313 70.5721 13.65C70.0148 12.4593 69.7361 11.484 69.7361 10.724C69.7361 9.28 70.2428 8.12733 71.2561 7.266C72.2695 6.40467 73.5488 5.974 75.0941 5.974C76.5381 5.974 77.6655 6.36667 78.4761 7.152C79.2868 7.93733 79.6921 8.862 79.6921 9.926C79.6921 10.7113 79.5781 11.4207 79.3501 12.054C79.1221 12.6873 78.7548 13.2573 78.2481 13.764C77.7415 14.2707 77.2855 14.676 76.8801 14.98C76.5001 15.2587 75.9555 15.626 75.2461 16.082C76.7408 18.1593 78.2481 19.8947 79.7681 21.288C79.9201 20.8573 79.9961 20.3507 79.9961 19.768C79.9961 18.9067 79.8441 18.0833 79.5401 17.298C80.2495 16.9687 80.7815 16.804 81.1361 16.804ZM97.5266 17.488V9.622C97.5266 6.05 97.4379 3.11133 97.2606 0.805998C97.6913 0.729999 98.2106 0.692 98.8186 0.692C100.06 0.692 100.681 1.17333 100.681 2.136C100.681 2.288 100.655 2.80733 100.605 3.694C100.554 4.55533 100.503 5.64467 100.453 6.962C100.402 8.254 100.377 9.48267 100.377 10.648V14.068C100.377 19.3373 100.465 22.5293 100.643 23.644C101.707 23.6947 102.543 23.72 103.151 23.72C107.103 23.72 109.649 23.4287 110.789 22.846C110.966 23.378 111.055 23.9353 111.055 24.518C111.055 24.974 110.941 25.3033 110.713 25.506C110.282 25.886 108.344 26.076 104.899 26.076C101.859 26.076 99.9586 26.0507 99.1986 26C98.5146 25.9747 98.0459 25.7973 97.7926 25.468C97.5646 25.1387 97.4506 24.594 97.4506 23.834C97.4506 23.4287 97.4633 22.4913 97.4886 21.022C97.5139 19.5527 97.5266 18.3747 97.5266 17.488ZM122.864 26.38C119.317 26.38 116.492 25.202 114.39 22.846C112.287 20.49 111.236 17.3487 111.236 13.422C111.236 9.44467 112.287 6.29067 114.39 3.96C116.492 1.604 119.317 0.425999 122.864 0.425999C126.436 0.425999 129.273 1.604 131.376 3.96C133.504 6.29067 134.568 9.44467 134.568 13.422C134.568 17.3487 133.504 20.49 131.376 22.846C129.273 25.202 126.436 26.38 122.864 26.38ZM131.376 14.106C131.376 12.6873 131.211 11.332 130.882 10.04C130.578 8.748 130.109 7.54467 129.476 6.43C128.842 5.31533 127.956 4.42867 126.816 3.77C125.676 3.086 124.371 2.744 122.902 2.744C120.292 2.744 118.215 3.64333 116.67 5.442C115.124 7.21533 114.352 9.48267 114.352 12.244C114.352 13.7387 114.504 15.1573 114.808 16.5C115.137 17.8427 115.618 19.0967 116.252 20.262C116.885 21.4273 117.759 22.352 118.874 23.036C120.014 23.72 121.331 24.062 122.826 24.062C125.562 24.062 127.664 23.15 129.134 21.326C130.628 19.4767 131.376 17.07 131.376 14.106ZM149.916 26.38C146.37 26.38 143.545 25.202 141.442 22.846C139.34 20.49 138.288 17.3487 138.288 13.422C138.288 9.44467 139.34 6.29067 141.442 3.96C143.545 1.604 146.37 0.425999 149.916 0.425999C153.488 0.425999 156.326 1.604 158.428 3.96C160.556 6.29067 161.62 9.44467 161.62 13.422C161.62 17.3487 160.556 20.49 158.428 22.846C156.326 25.202 153.488 26.38 149.916 26.38ZM158.428 14.106C158.428 12.6873 158.264 11.332 157.934 10.04C157.63 8.748 157.162 7.54467 156.528 6.43C155.895 5.31533 155.008 4.42867 153.868 3.77C152.728 3.086 151.424 2.744 149.954 2.744C147.345 2.744 145.268 3.64333 143.722 5.442C142.177 7.21533 141.404 9.48267 141.404 12.244C141.404 13.7387 141.556 15.1573 141.86 16.5C142.19 17.8427 142.671 19.0967 143.304 20.262C143.938 21.4273 144.812 22.352 145.926 23.036C147.066 23.72 148.384 24.062 149.878 24.062C152.614 24.062 154.717 23.15 156.186 21.326C157.681 19.4767 158.428 17.07 158.428 14.106ZM190.535 9.432V18.286C190.535 21.706 190.776 24.214 191.257 25.81C190.801 26.0127 190.206 26.114 189.471 26.114C188.736 26.114 188.242 25.9493 187.989 25.62C187.736 25.2907 187.609 24.7333 187.609 23.948C187.609 23.7707 187.609 22.884 187.609 21.288C187.634 19.692 187.647 17.4247 187.647 14.486C187.672 11.522 187.685 8.292 187.685 4.796C185.354 9.48267 182.808 16.5253 180.047 25.924C179.743 26.0253 179.401 26.076 179.021 26.076C178.033 26.076 177.4 25.7467 177.121 25.088C176.513 23.72 175.36 20.68 173.663 15.968C171.991 11.2307 170.496 7.532 169.179 4.872V18.286C169.179 21.706 169.42 24.214 169.901 25.81C169.445 26.0127 168.976 26.114 168.495 26.114C167.76 26.114 167.266 25.9493 167.013 25.62C166.76 25.2907 166.633 24.7333 166.633 23.948C166.633 23.5427 166.646 22.542 166.671 20.946C166.696 19.35 166.709 18.1087 166.709 17.222V7.646C166.709 4.80867 166.468 2.57933 165.987 0.957999C166.798 0.755331 167.532 0.653998 168.191 0.653998C169.255 0.653998 170.154 1.262 170.889 2.478C171.877 4.20067 172.878 6.30333 173.891 8.786C174.904 11.2687 175.69 13.3713 176.247 15.094C176.83 16.7913 177.64 19.2613 178.679 22.504C179.464 19.3627 180.516 15.968 181.833 12.32C183.176 8.672 184.67 5.39133 186.317 2.478C187.001 1.262 187.926 0.653998 189.091 0.653998C189.952 0.653998 190.662 0.755331 191.219 0.957999C190.763 2.478 190.535 5.30267 190.535 9.432Z" fill="white"/>
</svg>
